HIERARCHY
ROOT Hips
{
    OFFSET 0.000000 0.000000 0.000000
    CHANNELS 6 Xposition Yposition Zposition Zrotation Xrotation Yrotation
    JOINT Spine
    {
        OFFSET -0.000000 7.933882 0.000000
        CHANNELS 3 Zrotation Xrotation Yrotation
        JOINT Spine1
        {
            OFFSET -0.000000 22.729401 0.000000
            CHANNELS 3 Zrotation Xrotation Yrotation
            JOINT Neck
            {
                OFFSET -0.000000 22.636055 2.057823
                CHANNELS 3 Zrotation Xrotation Yrotation
                JOINT Head
                {
                    OFFSET -0.000000 13.545651 -1.935093
                    CHANNELS 3 Zrotation Xrotation Yrotation
                    End Site
                    {
                        OFFSET -0.000000 24.188663 0.000000
                    }
                }
            }
            JOINT LeftShoulder
            {
                OFFSET 3.842306 20.701504 -0.286599
                CHANNELS 3 Zrotation Xrotation Yrotation
                JOINT LeftArm
                {
                    OFFSET 11.351986 0.000000 0.000000
                    CHANNELS 3 Zrotation Xrotation Yrotation
                    JOINT LeftForeArm
                    {
                        OFFSET 28.321957 0.000000 0.000000
                        CHANNELS 3 Zrotation Xrotation Yrotation
                        JOINT LeftHand
                        {
                            OFFSET 27.250586 0.000000 0.000000
                            CHANNELS 3 Zrotation Xrotation Yrotation
                            End Site
                            {
                                OFFSET 14.513199 0.000000 0.000000
                            }
                        }
                    }
                }
            }
            JOINT RightShoulder
            {
                OFFSET -3.895451 20.701504 -0.286599
                CHANNELS 3 Zrotation Xrotation Yrotation
                JOINT RightArm
                {
                    OFFSET -11.351986 0.000000 0.000000
                    CHANNELS 3 Zrotation Xrotation Yrotation
                    JOINT RightForeArm
                    {
                        OFFSET -28.321957 0.000000 0.000000
                        CHANNELS 3 Zrotation Xrotation Yrotation
                        JOINT RightHand
                        {
                            OFFSET -27.250586 0.000000 0.000000
                            CHANNELS 3 Zrotation Xrotation Yrotation
                            End Site
                            {
                                OFFSET -14.513199 0.000000 0.000000
                            }
                        }
                    }
                }
            }
        }
    }
    JOINT LeftUpLeg
    {
        OFFSET 9.675466 0.000000 0.000000
        CHANNELS 3 Zrotation Xrotation Yrotation
        JOINT LeftLeg
        {
            OFFSET -0.000000 -34.562881 0.000000
            CHANNELS 3 Zrotation Xrotation Yrotation
            JOINT LeftFoot
            {
                OFFSET -0.000000 -42.809692 0.000000
                CHANNELS 3 Zrotation Xrotation Yrotation
                JOINT LeftToeBase
                {
                    OFFSET -0.000000 -6.289052 14.513199
                    CHANNELS 3 Zrotation Xrotation Yrotation
                    End Site
                    {
                        OFFSET -0.000000 0.000000 3.870186
                    }
                }
            }
        }
    }
    JOINT RightUpLeg
    {
        OFFSET -9.675466 0.000000 0.000000
        CHANNELS 3 Zrotation Xrotation Yrotation
        JOINT RightLeg
        {
            OFFSET -0.000000 -34.562881 0.000000
            CHANNELS 3 Zrotation Xrotation Yrotation
            JOINT RightFoot
            {
                OFFSET -0.000000 -42.809692 0.000000
                CHANNELS 3 Zrotation Xrotation Yrotation
                JOINT RightToeBase
                {
                    OFFSET -0.000000 -6.289052 14.513199
                    CHANNELS 3 Zrotation Xrotation Yrotation
                    End Site
                    {
                        OFFSET -0.000000 0.000000 3.870186
                    }
                }
            }
        }
    }
}
MOTION
Frames:    4
Frame Time:    0.010000
-11.066008    89.753677    -11.040545    1.374231    -12.853472    -2.056976    -7.202771    5.784719    1.664073    14.511003    -14.812273    3.195944    -8.897412    17.681271    1.514533    0.544315    24.361210    1.417546    17.038568    -26.591331    -10.586600    6.129437    9.078321    -33.557934    26.875530    -16.396952    -4.780021    16.282644    -15.086123    1.529852    -51.933945    -20.706375    9.678330    4.057539    7.145527    34.962170    -24.721901    -16.076603    -1.075520    -9.241763    -16.251007    -0.674209    13.813661    26.403547    -8.184587    -2.855722    3.863590    -3.318982    -9.795863    1.047318    14.147657    0.000000    0.000000    0.000000    -14.509444    21.782633    4.426453    3.310763    4.536676    -1.089310    7.288848    1.237657    22.834869    0.000000    0.000000    0.000000    
-11.048697    89.776733    -11.009851    1.310419    -12.871725    -2.225646    -7.240035    5.678323    1.705889    14.556034    -14.744532    3.239778    -8.757788    17.823702    1.479318    0.447782    24.404125    1.377898    17.063829    -26.601200    -10.659472    6.020520    8.946527    -33.613930    26.719128    -16.334679    -4.937460    16.931749    -14.943127    1.823609    -51.906826    -20.731754    9.703825    4.011737    7.319262    34.893318    -24.189720    -16.310667    -0.831125    -9.989172    -16.419207    -0.747229    13.728315    26.716902    -8.330235    -2.622041    3.099666    -2.344915    -10.139664    1.371701    13.994083    0.000000    0.000000    0.000000    -14.291823    22.006102    4.000380    2.903424    4.169821    -0.903793    7.376766    1.451975    23.069923    0.000000    0.000000    0.000000    
-11.048697    89.776733    -11.009851    1.310419    -12.871725    -2.225646    -7.240028    5.678337    1.705886    14.556030    -14.744544    3.239782    -8.757792    17.823706    1.479326    0.447787    24.404116    1.377892    17.063812    -26.601200    -10.659465    6.020535    8.946518    -33.613960    26.719168    -16.334677    -4.937449    16.931709    -14.943115    1.823612    -51.906822    -20.731758    9.703815    4.011761    7.319237    34.893341    -24.189714    -16.310642    -0.831112    -9.989181    -16.419191    -0.747236    13.728315    26.716902    -8.330235    -2.622041    3.099666    -2.344915    -10.139664    1.371701    13.994083    0.000000    0.000000    0.000000    -14.291823    22.006102    4.000380    2.903424    4.169821    -0.903793    7.376766    1.451975    23.069923    0.000000    0.000000    0.000000    
-11.048697    89.776733    -11.009851    1.310419    -12.871725    -2.225646    -7.240029    5.678347    1.705886    14.556030    -14.744553    3.239786    -8.757792    17.823702    1.479326    0.447791    24.404125    1.377892    17.063824    -26.601210    -10.659466    6.020511    8.946523    -33.613953    26.719200    -16.334669    -4.937455    16.931683    -14.943102    1.823616    -51.906834    -20.731758    9.703804    4.011767    7.319237    34.893349    -24.189724    -16.310642    -0.831117    -9.989162    -16.419188    -0.747234    13.728315    26.716902    -8.330235    -2.622041    3.099666    -2.344915    -10.139664    1.371701    13.994083    0.000000    0.000000    0.000000    -14.291823    22.006102    4.000380    2.903424    4.169821    -0.903793    7.376766    1.451975    23.069923    0.000000    0.000000    0.000000    
